<svg id="Layer_1" data-name="Layer 1" xmlns="http://www.w3.org/2000/svg" viewBox="0 0 352.16 130.87"><defs><style>.cls-1{fill:#159ed9;}.cls-2{fill:#179ed8;}.cls-3{fill:#179fd8;}.cls-4{fill:#179fd9;}.cls-5{fill:#1ca0d8;}.cls-6{fill:#e8f5f5;}.cls-7{fill:#ebf6f6;}.cls-8{fill:#34a8df;}.cls-9{fill:#1c9dca;}.cls-10{fill:#edf7f7;}.cls-11{fill:#0097b9;}.cls-12{fill:#0e98c8;}.cls-13{fill:#3e9dc7;}.cls-14{fill:#0f99c2;}.cls-15{fill:#d5ecf7;}.cls-16{fill:#039dce;}.cls-17{fill:#2091b6;}.cls-18{fill:#0599c1;}.cls-19{fill:#c7e6f7;}.cls-20{fill:#159ee7;}.cls-21{fill:#169ecd;}.cls-22{fill:#0c9de6;}.cls-23{fill:#169ed6;}.cls-24{fill:#d9232d;}</style></defs><path class="cls-1" d="M80.11,258.37a14.24,14.24,0,0,0,.63,6.25c1.92,5.86,4,11.69,5.07,17.79l0-.05c1.22.31,1.18,1.2,1,2.17l.15-.21-.17.19c1.7.34,1.18,1.74,1.31,2.83,10.37,18.94,26.21,30,47.3,33.31a61.82,61.82,0,0,0,41-7.65,10.36,10.36,0,0,1,1.92-.66c.18-.56.49-1,1.13-.95l0,0a2.26,2.26,0,0,1,1.92-1.21l-.06.06a1.12,1.12,0,0,1,1.17-.9v-.07a2.39,2.39,0,0,1,1.91-1.34l.9-.64c1.29-1.58,2.51-3.24,4.45-4.1l1.07-1.12.93-2a1.32,1.32,0,0,1,1.06-1.15l0,0a3.42,3.42,0,0,1,.07-1c1.25-3.15,1.26-3.18-2-3.19-8.95,0-17.9,0-27.57.32-.55.12-.43-.16-.24-.23a3.82,3.82,0,0,1,1-.09c-.19.25-.33.6-.58.73s-.54,0-.14-.41c.31-1.2-.45-1.4-1.31-1.37-1.46.05-2.1-.69-2.06-2.11-1.57-1.7-4.15-2-5.51-4a20.25,20.25,0,0,1-8-13.29,35.74,35.74,0,0,0-1-3.47,7.8,7.8,0,0,1,.08-8.28c1.65-3.81,2.5-8,5-11.43l-.48-.69.87-.15-.07.05c-.52-2.36,1.15-2.27,2.63-2.4l.14-.11c-.07-.6-.8-1.21-.06-1.8a29.42,29.42,0,0,1,16.6-6.22c4.72-.33,9.69-1.53,14,1.79a1.31,1.31,0,0,0,1,.12c3.58-1,4.48,1,4.51,4,1.61.87,2,3.27,4.12,3.46-.21-4.8-.66-9.47-6.18-11.32-.08.67-.36,1.75-.88,1.55-1.87-.72-4.49-.22-5.23-3l0,.08a10.82,10.82,0,0,1-2.95.38c-2.27-.35-5.17.72-6.34-2.52l.07,0c-1.4.19-2.16-.39-2.21-1.85l-.08-.1c-2.29-.12-1.92-1.78-1.86-3.27l.06.09c-2.5-2.61-.71-5.37-.21-8.07,0-.12.9-.08,1.38-.11,8.69-5.38,17.38-2.92,26,.08a40.67,40.67,0,0,1,4.59,2.26l.07-1.41-7.42-10.25a37.19,37.19,0,0,1-6.31-6.23c-4.52-2.84-8.62-6.36-13.57-8.51a7.31,7.31,0,0,0-3.3-1c-1.2-.13-2.79.81-3.33-1.21l0,.09c-1.19.05-2.62.77-3.13-1.12l.05.1c-1.25.1-2.61.59-3.3-1.06l-.41.09c-5.9-.06-11.72-1.51-17.67-1-2.18.19-4.41,0-6.62-.07l.08-.09c-.81,1.71-1.84,1.58-3,.37-9,1-16.91,4.88-24.23,10-9.84,6.91-17.57,15.63-22.06,27-.1,1.16.61,2.64-1.22,3.1l0,0c-1.11,5.75-2.56,11.41-3.4,17.23C80.88,252.44,81.84,255.64,80.11,258.37Z" transform="translate(-79.92 -190.56)"/><path class="cls-2" d="M221.43,228.27c-3.75,4.94-5.75,10.45-5.11,16.74.74,7.19,4.78,11.82,11.27,14.46,1.38.26,3.19-.91,4,1.24h-.05l1.19-.22c.89,0,1.77,0,2,1.16l-.07-.06,1.18.62-.06.41c2.16-.48,4.1.92,6.23.76,1.47-1.22,2.84-1.49,4,.4,3,1.65,6.63,1.14,9.69,2.66,1.65.82,3.78,1.31,3.81,3.6s-1.85,3.23-3.5,4c-5.91,2.74-12.05,2.81-18.26,1.23l-1.95-.38c-1.54.24-2.79-.63-4.15-1.1a1.44,1.44,0,0,1-1.47-.69.34.34,0,0,1-.53-.1l-6.14-.19a.84.84,0,0,1-.82.22,1.36,1.36,0,0,1-1.24.76.56.56,0,0,1-.61.33,2.65,2.65,0,0,1-1.52,1.8,1.4,1.4,0,0,1-.82,1.22,3.75,3.75,0,0,1-1,2.52.4.4,0,0,1,0,.54c0,1,0,2.05,0,3.07.91.81.79,2,1.13,3,5.07,5,11.87,6.14,18.28,7,11.13,1.55,22.14.42,32.05-5.85,1-2,3.08-3,4.38-4.8,3.24-4.55,3.6-9.71,3.88-15-.13-1.67-.26-3.35-.38-5-3.45-7.61-9.53-11.52-17.48-13-1.4-.25-3-.26-4.16-1.53l0,.08c-1.74,0-3.51.05-5.09-.95l-1.95-.43c-1.4-.06-2.91.32-4-.95l-1.12-.19c-1.13.19-2.23.24-3-.82h0c-.86.05-1.7,0-2.2-.86l-.09,0a3.25,3.25,0,0,1-3.6-3.38c-.1-2,1.64-2.89,3.19-3.49a59.84,59.84,0,0,1,5.8-1.6,8.69,8.69,0,0,1,9.22,0,2.42,2.42,0,0,1,.21.83l-.1,0,2,.18,1,.11a2.3,2.3,0,0,1,2.43.81c1,0,2.09-.17,2.84.82l2.95.84,2,.05c9-3.19,10.54-10.13,3.66-16.89A52.81,52.81,0,0,0,242,218.77a65,65,0,0,0-12.13,3.42l-7.37,5.08A1.23,1.23,0,0,1,221.43,228.27Z" transform="translate(-79.92 -190.56)"/><path class="cls-3" d="M416.39,289.36a1.31,1.31,0,0,1,1.2-.82l6-5.45a1.05,1.05,0,0,1,.34-.8.9.9,0,0,1,.8-1.05l0,0a13,13,0,0,1,2-5.18h0c0-2.4.58-4.79.1-7.19-1.67-1.3-1.67-2.7-.23-4.17.23-2.34-1.22-4.19-1.81-6.3a20,20,0,0,0-13.53-8.06c-.66.87-1.65,1.25-2.29.4-.33-.42.8-.47,1.3-.62-5.32-2.3-11.17-2.43-16.65-4-1.94-.58-4-.84-5.87-1.54-3.48-1.3-3.91-2.92-2-6.64,1.41-3.42,2.11-3.69,6.29-2.46,2.51-1.8,5.36-.43,8-.87,2.86-1.16,5.95,3.09,8.71-.38a3.25,3.25,0,0,1,.63.71c1,2.17,3.89,1.88,5,3.88h2.06c.64-1.91,2.11-2.24,3.85-2.09.3-.81.27-1.92,1.59-1.84h-.07c1-2.05.2-4.55,1.6-6.5-.26-.78-.51-1.56-.76-2.34l-.13-.26c-3.84-5.27-9.82-5.8-15.42-6.79a46.21,46.21,0,0,0-27.5,3.53,1.1,1.1,0,0,1-1.16.68,2.19,2.19,0,0,1-1.91,1.11c-1.2,1.25-2.28,2.64-4.05,3.13l-4.37,6.12-.33,1.11a.9.9,0,0,1-.58,1.11c-.15.73-.3,1.46-.44,2.19l-.42,1.82-.21,2.09,0,2.08c.06.66.13,1.32.2,2,.76.59.63,1.39.49,2.18.47,1.49,1.69,2.88.57,4.57l.22.1.32,0c1-1.11,1.07-.13,1.3.55,3.64,4.78,9,6.71,14.29,8.6a2,2,0,0,1,2.1.68l3,.4c2.68.62,5.7,0,7.9,2.29l3.4-.2a7.64,7.64,0,0,1,4.6,1.37c1.23.31,2.67.07,3.5,1.4,2.11.84,2.47,2.06,1,3.88a9.1,9.1,0,0,1-7,3.53l-.29.17-.33-.1c-1,.86-2.19.75-3.37.85a39.77,39.77,0,0,1-17.46-2.4,11.53,11.53,0,0,0-9.35.32c-.85,1.79-3,2.83-2.93,5.15,1.72,2,.55,4.3.77,6.46.89,3.44,4.06,3.89,6.62,4.84a52.37,52.37,0,0,0,21.51,3.27c1.86-.11,3.74-.1,5.6-.15l11.29-3.13A2.58,2.58,0,0,1,416.39,289.36Zm-23.18-42.18a6.11,6.11,0,0,1,1.86,1.12c.65.78-.35.68-.66.71-.79.06-1.71.21-2.16-.72C392,247.69,392.39,247.4,393.21,247.18Z" transform="translate(-79.92 -190.56)"/><path class="cls-4" d="M304.61,242.86l-.37.16-.4,0a2.73,2.73,0,0,1-2.27.91c-11.37,6.47-15.25,16.4-13.16,29.1,1.78,1.72,1.92,3.92,1.81,6.21.54,2.33,2.15,4.12,3.08,6.25,2.75,1.62,4.65,4.59,8.06,5.16,1.44.21,3.14-.76,4.26.95.85.05,1.68.14,2.07,1.09a1.13,1.13,0,0,0,.92,0l.5,0,.46.2a7.68,7.68,0,0,0,5.22.24l.12-2.53c-1.74-.66-4.61,1.53-5.18-2.09,1.25-1.83,3.13-1,4.71-1,12.12-.07,24.24,0,36.35,0q0-20.74,0-41.51c.35-1.72-.9-3.76,1-5.18a8.06,8.06,0,0,1,.85,0c0-.94,0-1.88,0-2.82a16.19,16.19,0,0,1-2.06-5.43l.06,0a1.12,1.12,0,0,1-.83-1.15l-.52-.89-6.1-6.25a1,1,0,0,1-.83-.87c-3.33-1.08-6.19-3.51-9.89-3.5-1.77-.31-3.9,1.09-5.26-1.13l-1.12-.82-8.2,0c-2,1.35-5.15,1-6.23,3.93-.31,2.45.92,5.05-.74,7.35,0,2.75,2.24,3.8,3.88,5.32l3.15.69c2.77-.93,5.53-1.74,8.09.53,1.37.63,2.77,1.2,4.1,1.91,4.07,2.15,5.44,5.9,5.7,10.22a2.11,2.11,0,0,1-.55,1.38c-.55.61-.77-.08-1-.43-3.38-4.46-8.57-5.85-13.31-8l-5-.08c-.11.25-.23.49-.36.74a4.32,4.32,0,0,1,.95.27c.33.16,1,.75.3.78-2.38.1-4.88,1-7.13-.59l-2-.15a1.1,1.1,0,0,1-.75.17A2.5,2.5,0,0,1,304.61,242.86Zm4.27,32c-.57,0-1.2.32-1.61-.31,0-.07.34-.42.53-.64-5.22-7.35-3.19-13.12,5.47-15.61a15.19,15.19,0,0,0,1.81-.78c-.66-.47-1.16-1.88-.61-1.67,2.79,1,6.27-1,8.53,2a.89.89,0,0,0,1.15.33,1.59,1.59,0,0,1,2.48-.38l-.58.73c9.73,5.06,10.28,6.09,9.33,17.48-.14.77.06,1.93-1.31,1.43-1.66-.6-3.35-.31-5-.32-5.74-.05-11.49,0-17.24,0-1.57,0-3.21.12-3-2.28Z" transform="translate(-79.92 -190.56)"/><path class="cls-5" d="M193.45,267.79l.19-1.05a16.68,16.68,0,0,0-6.1-6.56c-.56.08-.8-.31-1-.72-3.49,0-6.67-2.38-10.28-1.29-1.21,1.93-2.57,1.83-4,.31-4.56-.08-7.32,2.46-9.11,6.41-.08,7.31.89,8.74,7,10.24,4.8-2.5,9.93-.56,14.87-1.11.28,0,.59.28.88.43a4.48,4.48,0,0,1-1.31.5c-4.58.21-9.19-.32-13.77.31,7.23,1.25,14.52.4,21.77.57,1.07,0,1.24-.94,1.14-1.87C192.14,272,192.32,269.89,193.45,267.79Z" transform="translate(-79.92 -190.56)"/><path class="cls-6" d="M321,240.92c4.74,2.15,9.93,3.54,13.31,8,.27.35.49,1,1,.43a2.11,2.11,0,0,0,.55-1.38c-.26-4.32-1.63-8.07-5.7-10.22-1.33-.71-2.73-1.28-4.1-1.91l-8.09-.53-3.15-.69c0,.67,1.18,1.5-.21,2-.73.24-1.67-.26-2.22.64.61.25,1.5.33,1.77.78,1.05,1.78,2.64,1.79,4.34,1.73C319.56,239.7,320.58,239.71,321,240.92Zm-1.43-3.23.87.44c-.27.17-.53.44-.82.47s-1,.12-.92-.59C318.73,237.87,319.28,237.8,319.58,237.69Z" transform="translate(-79.92 -190.56)"/><path class="cls-7" d="M176.24,258.17c3.61-1.09,6.79,1.32,10.28,1.29l1,0,.06-.07c.44-1.63.84-3.28,1.35-4.9.31-.94-.28-1.16-.88-1.47s-1.37-.46-1.5.48c-.22,1.64-1.43,2.19-2.53,1.7-3.36-1.48-6.87.48-10.27-.79a4.32,4.32,0,0,0-5.08,1.23c-1.31,1.52-3.29,2.61-5.33.64-.3-.29-.78-.85-1.2-.11-.15.26-.26.78-.12.94,1.36,1.49,1.8,2.74.1,4.5-.86.89.6,2.15,1,3.26,1.79-3.95,4.55-6.49,9.11-6.41Z" transform="translate(-79.92 -190.56)"/><path class="cls-6" d="M424.83,258.38c.59,2.11,2,4,1.81,6.3a8.79,8.79,0,0,1,.23,4.17c.48,2.4-.12,4.79-.1,7.19,1.5-1.11.56-5.29,4.36-3.54.09,0,.62-.47.6-.69-.48-3.92,1.82-8.19-1.42-11.78a15.88,15.88,0,0,1-1.14-1.71c-1.59-2.31-2.21-2.32-3.37-.12C425.71,258.38,425.17,258.33,424.83,258.38Z" transform="translate(-79.92 -190.56)"/><path class="cls-8" d="M350.79,293.7c.67-.29,1.73.08,1.87-1.12l-.92-.9-.95,0c-9.39,0-18.77,0-28.15,0-1.59,0-3.46.8-4.73-1h-3l-.12,2.53c7.08.92,14.19.24,21.28.41C341,293.66,345.89,293.66,350.79,293.7Z" transform="translate(-79.92 -190.56)"/><path class="cls-9" d="M189.63,245.75c0-3-.93-5-4.51-4a1.31,1.31,0,0,1-1-.12c-4.33-3.32-9.3-2.12-14-1.79a29.42,29.42,0,0,0-16.6,6.22c-.74.59,0,1.2.06,1.8,6.08-4,12.57-6.51,19.94-6.8a22.31,22.31,0,0,1,15.16,4.75l.47,0Z" transform="translate(-79.92 -190.56)"/><path class="cls-10" d="M371.34,274a11.53,11.53,0,0,1,9.35-.32,39.77,39.77,0,0,0,17.46,2.4c1.18-.1,2.39,0,3.37-.85-4.78-1.82-9.85-1.71-14.82-2.31-.75-.09-1.86.45-2.18-.41s1.2-.4,1.34-1.08-.6-.54-1-.56c-4-.16-7.79,1.78-11.93.17C371.26,270.38,371.42,272.7,371.34,274Z" transform="translate(-79.92 -190.56)"/><path class="cls-10" d="M404.64,266.36A7.64,7.64,0,0,0,400,265c.1,1-1.13,2.24-.24,2.75,3.2,1.82,2.13,4.79,2.34,7.43a9.1,9.1,0,0,0,7-3.53c1.48-1.82,1.12-3-1-3.88a3.17,3.17,0,0,0-2.23.82c-.69.58-1.53,1.72-2.39.51S403.5,267,404.64,266.36Z" transform="translate(-79.92 -190.56)"/><path class="cls-11" d="M351.74,291.68l.92.9q.12-16.32.25-32.65c0-4.66.15-9.32.22-14v-2.1c0-1.05-.09-2.1-.14-3.15l-.32.12a8.06,8.06,0,0,0-.85,0c0,1.73,0,3.46,0,5.18v41.5l0,1.07Z" transform="translate(-79.92 -190.56)"/><path class="cls-12" d="M167.59,292.89c-2.69.22-5.17-.78-7.72-1.32,0,1.42.6,2.16,2.06,2.11a1.91,1.91,0,0,1,2,1.05c8.95,0,17.9,0,26.85,0,3.26,0,3.25,0,2,3.19a3.42,3.42,0,0,0-.07,1,4,4,0,0,1,1-.12l1.91-2.43,1.2-2.68-1.08-.35c-8.59.64-17.2.13-25.8.27A3.2,3.2,0,0,1,167.59,292.89Z" transform="translate(-79.92 -190.56)"/><path class="cls-9" d="M414.45,238.75c-1.14-2-4-1.71-5-3.88a3.25,3.25,0,0,0-.63-.71c-2.76,3.47-5.85-.78-8.71.38-2.5,2-5.35.58-8,.87-4.18-1.23-4.88-1-6.29,2.46a37.83,37.83,0,0,1,24.75.18A9,9,0,0,0,414.45,238.75Z" transform="translate(-79.92 -190.56)"/><path class="cls-7" d="M414.2,290.45l-11.29,3.13c2.91.6,5.83,1.12,8.71,1.79,5.48,1.28,6.25.54,4.86-4.81Z" transform="translate(-79.92 -190.56)"/><path class="cls-13" d="M80.11,258.37c1.73-2.73.77-5.93,1.19-8.86.84-5.82,2.29-11.48,3.4-17.23C80.54,240.51,79.43,249.28,80.11,258.37Z" transform="translate(-79.92 -190.56)"/><path class="cls-7" d="M187.54,260.18a16.68,16.68,0,0,1,6.1,6.56c2.2-1.95.82-4.47,1-6.73.11-1.32-1.07-1.42-2.12-1.61-1.8-.32-3.2,1.1-4.91,1l-.06.07C187.53,259.71,187.54,259.94,187.54,260.18Z" transform="translate(-79.92 -190.56)"/><path class="cls-6" d="M222.47,227.27l7.37-5.08c-4.42-3.1-6.61,1-9.42,3v2.06c.33,0,.67,0,1,0Z" transform="translate(-79.92 -190.56)"/><path class="cls-14" d="M135.09,191.88c2.21,0,4.44.26,6.62.07,5.95-.53,11.77.92,17.67,1C151.4,189.94,143.29,190,135.09,191.88Z" transform="translate(-79.92 -190.56)"/><path class="cls-13" d="M85.81,282.41c-1.12-6.1-3.15-11.93-5.07-17.79C81.16,270.92,82.18,277,85.81,282.41Z" transform="translate(-79.92 -190.56)"/><path class="cls-6" d="M369.27,225.2l3.28,2.16c1.77-.49,2.85-1.88,4.05-3.13a3.9,3.9,0,0,1-2.32-.76C371.62,221.09,370.26,222.61,369.27,225.2Z" transform="translate(-79.92 -190.56)"/><path class="cls-6" d="M423.55,283.09l-6,5.45c1.24,0,2.15,2.86,3.25,1S426.46,286.78,423.55,283.09Z" transform="translate(-79.92 -190.56)"/><path class="cls-15" d="M189.7,303.16c-1.94.86-3.16,2.52-4.45,4.1.59.45-.95,3.09,1.81,1.48C189.46,307.33,191.29,306.24,189.7,303.16Z" transform="translate(-79.92 -190.56)"/><path class="cls-7" d="M189.63,245.75l-.48.07-.47,0c-.16,1.05.66,2,.64,2.87-.06,3.79,2.06,3.26,4.41,2.5h0v-1.93C191.59,249,191.24,246.62,189.63,245.75Z" transform="translate(-79.92 -190.56)"/><path class="cls-10" d="M396.64,265.19c-2.2-2.29-5.22-1.67-7.9-2.29.89,2.69,2.6,3.83,5.14,3.28A24,24,0,0,0,396.64,265.19Z" transform="translate(-79.92 -190.56)"/><path class="cls-16" d="M170.73,275.26c4.58-.63,9.19-.1,13.77-.31a4.48,4.48,0,0,0,1.31-.5c-.29-.15-.6-.46-.88-.43-4.94.55-10.07-1.39-14.87,1.11A.51.51,0,0,0,170.73,275.26Z" transform="translate(-79.92 -190.56)"/><path class="cls-12" d="M181.46,236.46c.74,2.76,3.36,2.26,5.23,3,.52.2.8-.88.88-1.55C185.77,236.36,183.65,236.27,181.46,236.46Z" transform="translate(-79.92 -190.56)"/><path class="cls-12" d="M172.22,234.4c1.17,3.24,4.07,2.17,6.34,2.52a10.82,10.82,0,0,0,2.95-.38Z" transform="translate(-79.92 -190.56)"/><path class="cls-14" d="M169.37,221.14c-.48,0-1.36,0-1.38.11-.5,2.7-2.29,5.46.21,8.07C167.92,226.5,168.71,223.83,169.37,221.14Z" transform="translate(-79.92 -190.56)"/><path class="cls-10" d="M391.86,268.79a9.42,9.42,0,0,0,.19,2c.39,1.28,1.5,1.06,2.48,1a1,1,0,0,0,1.06-.84c.12-1.24-.74-1.79-1.74-2a10.86,10.86,0,0,0-2-.13Z" transform="translate(-79.92 -190.56)"/><path class="cls-15" d="M196.82,293.71l-1.2,2.68c.29,1.22,1.21,1.42,2.25,1.42h.92a8.21,8.21,0,0,0,.05-1C198.15,295.79,198.13,294.32,196.82,293.71Z" transform="translate(-79.92 -190.56)"/><path class="cls-14" d="M311.73,222a1.76,1.76,0,0,1-.74.22c-.35,2.38-1.33,4.76,0,7.13C312.65,227,311.42,224.4,311.73,222Z" transform="translate(-79.92 -190.56)"/><path class="cls-17" d="M369.18,285.62c-.22-2.16.95-4.49-.77-6.46C367.87,281.41,367.22,283.68,369.18,285.62Z" transform="translate(-79.92 -190.56)"/><path class="cls-6" d="M426.74,279.14a5.46,5.46,0,0,0,1,0c1-.22,2.73.63,2.62-1.21-.06-1.16-1.59-.71-2.51-.84-.33,0-.66,0-1-.06Z" transform="translate(-79.92 -190.56)"/><path class="cls-16" d="M145.52,262.56a7.8,7.8,0,0,0-.08,8.28Z" transform="translate(-79.92 -190.56)"/><path class="cls-18" d="M309.74,242c2.25,1.57,4.75.69,7.13.59.73,0,0-.62-.3-.78a4.32,4.32,0,0,0-.95-.27A1,1,0,0,1,315,241a5.4,5.4,0,0,1-3.19.43Z" transform="translate(-79.92 -190.56)"/><path class="cls-13" d="M423.48,228.3c-1.4,1.95-.61,4.45-1.6,6.5C424.42,233.14,423.86,230.7,423.48,228.3Z" transform="translate(-79.92 -190.56)"/><path class="cls-17" d="M289.34,279a3.36,3.36,0,0,1,.88.18c.11-2.29,0-4.49-1.81-6.21l-.18,2a.52.52,0,0,1,.09.68c1,.94,1,2.19,1,3.42Z" transform="translate(-79.92 -190.56)"/><path class="cls-15" d="M426.74,279.14l.11-2.11a5.36,5.36,0,0,0-.12-1,13,13,0,0,0-2,5.18C426.17,281.3,426.8,280.56,426.74,279.14Z" transform="translate(-79.92 -190.56)"/><path class="cls-17" d="M193.45,267.79c-1.13,2.1-1.31,4.16.19,6.17A16.64,16.64,0,0,0,193.45,267.79Z" transform="translate(-79.92 -190.56)"/><path class="cls-10" d="M385.71,262.5a2,2,0,0,0-2.1-.68c.17.89-.34,2.22,1,2.44S385.56,263.25,385.71,262.5Z" transform="translate(-79.92 -190.56)"/><path class="cls-17" d="M420.36,236.65c-1.74-.15-3.21.18-3.85,2.09a4.14,4.14,0,0,0,3.95-1.77Z" transform="translate(-79.92 -190.56)"/><path class="cls-10" d="M198.79,297.8h-.92c0,1.05.18,2,1.49,2s1.5-1,1.55-2Z" transform="translate(-79.92 -190.56)"/><path class="cls-7" d="M420.8,293.45c.66-.2,1.23-.57,1.25-1.3,0-.14-.79-.39-1.22-.43a.85.85,0,0,0-1,.89A.78.78,0,0,0,420.8,293.45Z" transform="translate(-79.92 -190.56)"/><path class="cls-14" d="M153.44,247.94c-1.48.13-3.15,0-2.63,2.4A4.36,4.36,0,0,0,153.44,247.94Z" transform="translate(-79.92 -190.56)"/><path class="cls-12" d="M168.14,229.23c-.06,1.49-.43,3.15,1.86,3.27C169.51,231.34,169.25,230,168.14,229.23Z" transform="translate(-79.92 -190.56)"/><path class="cls-6" d="M378.51,223.12a1.1,1.1,0,0,0,1.16-.68,1.68,1.68,0,0,0-2.6-1.09Z" transform="translate(-79.92 -190.56)"/><path class="cls-13" d="M307.69,292.66c-.39-1-1.22-1-2.07-1.09h-1.91A4.5,4.5,0,0,0,307.69,292.66Z" transform="translate(-79.92 -190.56)"/><path class="cls-17" d="M303.71,291.57h1.91c-1.12-1.71-2.82-.74-4.26-.95C301.9,291.55,302.8,291.57,303.71,291.57Z" transform="translate(-79.92 -190.56)"/><path class="cls-13" d="M231.58,260.71c-.8-2.15-2.61-1-4-1.24C228.68,260.67,230.17,260.56,231.58,260.71Z" transform="translate(-79.92 -190.56)"/><path class="cls-19" d="M309.73,240.76l-2,.08v1l2,.15,2.05-.62C311.26,240.68,310.49,240.76,309.73,240.76Z" transform="translate(-79.92 -190.56)"/><path class="cls-13" d="M88,287.34c-.13-1.09.39-2.49-1.31-2.83C86.81,285.62,87,286.7,88,287.34Z" transform="translate(-79.92 -190.56)"/><path class="cls-15" d="M191.7,300.05l-.93,2c1.34,0,1.92-.75,2.1-2l-.25-.24C192.31,299.89,192,300,191.7,300.05Z" transform="translate(-79.92 -190.56)"/><path class="cls-12" d="M170.08,232.6c0,1.46.81,2,2.21,1.85A3.36,3.36,0,0,0,170.08,232.6Z" transform="translate(-79.92 -190.56)"/><path class="cls-11" d="M132.17,192.16c1.16,1.21,2.19,1.34,3-.37Z" transform="translate(-79.92 -190.56)"/><path class="cls-14" d="M159.79,192.84c.69,1.65,2.05,1.16,3.3,1.06C162.28,192.6,161,192.84,159.79,192.84Z" transform="translate(-79.92 -190.56)"/><path class="cls-14" d="M163,193.8c.51,1.89,1.94,1.17,3.13,1.12C165.44,193.68,164.22,193.8,163,193.8Z" transform="translate(-79.92 -190.56)"/><path class="cls-13" d="M84.66,232.3c1.83-.46,1.12-1.94,1.22-3.1C84.68,229.91,84.77,231.15,84.66,232.3Z" transform="translate(-79.92 -190.56)"/><path class="cls-14" d="M166.13,194.83c.54,2,2.13,1.08,3.33,1.21A4.22,4.22,0,0,0,166.13,194.83Z" transform="translate(-79.92 -190.56)"/><path class="cls-13" d="M420.36,236.65l.1.32c1.26-.19,1.29-1.24,1.49-2.16C420.63,234.73,420.66,235.84,420.36,236.65Z" transform="translate(-79.92 -190.56)"/><path class="cls-11" d="M410.31,250.1c-.5.15-1.63.2-1.3.62.64.85,1.63.47,2.29-.4Z" transform="translate(-79.92 -190.56)"/><path class="cls-6" d="M181.34,310.15a2.26,2.26,0,0,0-1.92,1.21C180.3,311.35,181.13,311.25,181.34,310.15Z" transform="translate(-79.92 -190.56)"/><path class="cls-19" d="M304.61,242.86a2.5,2.5,0,0,0,2.36-.8C306,241.77,305.11,241.74,304.61,242.86Z" transform="translate(-79.92 -190.56)"/><path class="cls-19" d="M184.35,307.9a2.39,2.39,0,0,0-1.91,1.34C183.4,309.27,184.26,309.15,184.35,307.9Z" transform="translate(-79.92 -190.56)"/><path class="cls-17" d="M234.75,261.64c-.26-1.13-1.14-1.14-2-1.16,0,.31,0,.62,0,.93Z" transform="translate(-79.92 -190.56)"/><path class="cls-13" d="M86.74,284.53c.21-1,.25-1.86-1-2.17A2.23,2.23,0,0,0,86.74,284.53Z" transform="translate(-79.92 -190.56)"/><path class="cls-15" d="M414.2,290.45l2.28.11-.09-1.2A2.58,2.58,0,0,0,414.2,290.45Z" transform="translate(-79.92 -190.56)"/><path class="cls-19" d="M200.06,222.07l-.07,1.41c.18.4.56.53.75.16C201.1,222.93,200.78,222.38,200.06,222.07Z" transform="translate(-79.92 -190.56)"/><path class="cls-6" d="M182.45,309.31a1.12,1.12,0,0,0-1.17.9A1.2,1.2,0,0,0,182.45,309.31Z" transform="translate(-79.92 -190.56)"/><path class="cls-14" d="M150.88,250.29l-.87.15.48.69A.79.79,0,0,0,150.88,250.29Z" transform="translate(-79.92 -190.56)"/><path class="cls-8" d="M309.57,292.89l-.46-.2-.5,0C308.88,293,309.16,293.31,309.57,292.89Z" transform="translate(-79.92 -190.56)"/><path class="cls-17" d="M235.86,262.2l-1.18-.62A1.13,1.13,0,0,0,235.86,262.2Z" transform="translate(-79.92 -190.56)"/><polygon class="cls-13" points="342.67 35.14 342.8 35.39 343 35.22 342.67 35.14"/><path class="cls-6" d="M179.37,311.39c-.64,0-1,.39-1.13.95A1.3,1.3,0,0,0,179.37,311.39Z" transform="translate(-79.92 -190.56)"/><path class="cls-13" d="M232.76,261.41c0-.31,0-.62,0-.93l-1.19.22A1,1,0,0,0,232.76,261.41Z" transform="translate(-79.92 -190.56)"/><path class="cls-15" d="M424.69,281.24a.9.9,0,0,0-.8,1.05A1,1,0,0,0,424.69,281.24Z" transform="translate(-79.92 -190.56)"/><path class="cls-15" d="M193.71,298.82a4,4,0,0,0-1,.12l0,0c0,.31-.08.62-.14.93l.25.24Z" transform="translate(-79.92 -190.56)"/><path class="cls-19" d="M315,241a1,1,0,0,0,.64.59c.13-.25.25-.49.36-.74Z" transform="translate(-79.92 -190.56)"/><path class="cls-12" d="M162.52,295.37c.32.05.66.2.86.09s.39-.48.58-.73a3.82,3.82,0,0,0-1,.09C162.81,294.89,162.69,295.17,162.52,295.37Z" transform="translate(-79.92 -190.56)"/><path class="cls-12" d="M192.62,299.83c.06-.31.11-.62.14-.93a1.32,1.32,0,0,0-1.06,1.15C192,300,192.31,299.89,192.62,299.83Z" transform="translate(-79.92 -190.56)"/><path class="cls-18" d="M243,235.62h9.22A8.69,8.69,0,0,0,243,235.62Z" transform="translate(-79.92 -190.56)"/><path class="cls-10" d="M229.68,273a4.63,4.63,0,0,0-6.14-.19Z" transform="translate(-79.92 -190.56)"/><path class="cls-18" d="M242,263.37l4,.4C244.87,261.88,243.5,262.15,242,263.37Z" transform="translate(-79.92 -190.56)"/><path class="cls-10" d="M220.87,274.11c-1.24,0-1.44.83-1.52,1.8A2.65,2.65,0,0,0,220.87,274.11Z" transform="translate(-79.92 -190.56)"/><path class="cls-10" d="M218.53,277.13c-1.35.42-1.14,1.49-1,2.52A3.75,3.75,0,0,0,218.53,277.13Z" transform="translate(-79.92 -190.56)"/><path class="cls-10" d="M222.72,273a1.22,1.22,0,0,0-1.24.76A1.36,1.36,0,0,0,222.72,273Z" transform="translate(-79.92 -190.56)"/><path class="cls-10" d="M231.68,273.78a1.3,1.3,0,0,0-1.47-.69A1.44,1.44,0,0,0,231.68,273.78Z" transform="translate(-79.92 -190.56)"/><path class="cls-18" d="M392.06,235.41c2.67-.29,5.52,1.1,8-.87C397.42,235,394.57,233.61,392.06,235.41Z" transform="translate(-79.92 -190.56)"/><path class="cls-20" d="M393.21,247.18c-.82.22-1.25.51-1,1.11.45.93,1.37.78,2.16.72.31,0,1.31.07.66-.71A6.11,6.11,0,0,0,393.21,247.18Z" transform="translate(-79.92 -190.56)"/><path class="cls-18" d="M426.87,268.85a8.79,8.79,0,0,0-.23-4.17C425.2,266.15,425.2,267.55,426.87,268.85Z" transform="translate(-79.92 -190.56)"/><path class="cls-20" d="M351.74,291.68l.05-3.16H309.73c.57,3.62,3.44,1.43,5.18,2.09h3c.38-.32.75-.92,1.13-.92,10-.08,20-.09,30-.11,1.33,0,1.64.95,1.73,2.06Z" transform="translate(-79.92 -190.56)"/><path class="cls-21" d="M309.73,288.51h42.06l0-1.07c-.34,0-.68,0-1,0-12.11,0-24.23,0-36.35,0C312.86,287.51,311,286.68,309.73,288.51Z" transform="translate(-79.92 -190.56)"/><path class="cls-22" d="M350.79,287.46c.34,0,.68,0,1,0V246h-1Q350.8,266.71,350.79,287.46Z" transform="translate(-79.92 -190.56)"/><path class="cls-14" d="M335.38,276c-4.61,0-9.23-.12-13.84,0a50.65,50.65,0,0,1-12.7-1.17c-.25,2.4,1.39,2.28,3,2.28,5.75,0,11.5,0,17.24,0,1.68,0,3.37-.28,5,.32C335.44,277.92,335.24,276.76,335.38,276Z" transform="translate(-79.92 -190.56)"/><path class="cls-16" d="M315.08,257.52l7.92.31c-2.26-3-5.74-.93-8.53-2C313.92,255.64,314.42,257.05,315.08,257.52Z" transform="translate(-79.92 -190.56)"/><path class="cls-18" d="M318,235.31l8.09.53C323.55,233.57,320.79,234.38,318,235.31Z" transform="translate(-79.92 -190.56)"/><path class="cls-20" d="M350.8,246h1c0-1.72,0-3.45,0-5.18C349.9,242.19,351.15,244.23,350.8,246Z" transform="translate(-79.92 -190.56)"/><path class="cls-17" d="M332.54,219.93c-1.56-1.3-3.44-1.07-5.26-1.13C328.64,221,330.77,219.62,332.54,219.93Z" transform="translate(-79.92 -190.56)"/><path class="cls-14" d="M324.15,258.16l1.9.35.58-.73A1.59,1.59,0,0,0,324.15,258.16Z" transform="translate(-79.92 -190.56)"/><path class="cls-14" d="M308.88,274.86a1.22,1.22,0,0,0-1.08-.95c-.19.22-.57.57-.53.64C307.68,275.18,308.31,274.9,308.88,274.86Z" transform="translate(-79.92 -190.56)"/><path class="cls-11" d="M176.24,258.17l-4,.31C173.67,260,175,260.1,176.24,258.17Z" transform="translate(-79.92 -190.56)"/><path class="cls-15" d="M167.59,292.89a3.2,3.2,0,0,0,2.35.74c8.6-.14,17.21.37,25.8-.27-.43-.23-.87-.67-1.3-.67Q181,292.75,167.59,292.89Z" transform="translate(-79.92 -190.56)"/><path class="cls-23" d="M350.79,291.64c-.09-1.11-.4-2.06-1.73-2.06-10,0-20,0-30,.11-.38,0-.75.6-1.13.92,1.27,1.79,3.14,1,4.73,1C332,291.68,341.4,291.64,350.79,291.64Z" transform="translate(-79.92 -190.56)"/><path class="cls-24" d="M210.35,318.76a6.61,6.61,0,0,1-3.41-.9,6.42,6.42,0,0,1-2.45-2.69,9.58,9.58,0,0,1-.9-4.37,9.26,9.26,0,0,1,1-4.4,6.64,6.64,0,0,1,2.59-2.73,7.15,7.15,0,0,1,3.62-.93,6.94,6.94,0,0,1,2.85.53,5.5,5.5,0,0,1,3,3.11,5,5,0,0,1,.33,1.67v.13h-3.65v-.13a2.34,2.34,0,0,0-.16-.86,2.3,2.3,0,0,0-.49-.76,2.44,2.44,0,0,0-.79-.53,2.54,2.54,0,0,0-1.06-.2,2.93,2.93,0,0,0-1.58.47,3.38,3.38,0,0,0-1.28,1.57,7.69,7.69,0,0,0-.49,3.06,8.85,8.85,0,0,0,.28,2.44,4.34,4.34,0,0,0,.75,1.54,2.51,2.51,0,0,0,1.06.8,3.13,3.13,0,0,0,1.2.24,3.3,3.3,0,0,0,1.44-.28,2.68,2.68,0,0,0,.94-.71,2,2,0,0,0,.44-.82v-.8H210.7v-2.65h6.15v7.94H215l-.36-1.71a2.06,2.06,0,0,1-.35.54,3.42,3.42,0,0,1-.79.67,4.65,4.65,0,0,1-1.28.54A6.9,6.9,0,0,1,210.35,318.76Z" transform="translate(-79.92 -190.56)"/><path class="cls-24" d="M254,318.5V303h6.58a5.41,5.41,0,0,1,3.78,1.14,4.17,4.17,0,0,1,1.24,3.22,4.23,4.23,0,0,1-.46,2,3.59,3.59,0,0,1-1.12,1.3,2.87,2.87,0,0,1-1.32.51,3.12,3.12,0,0,1,1.25.32,2.14,2.14,0,0,1,.95.89,3.24,3.24,0,0,1,.36,1.64v2.77a6.23,6.23,0,0,0,.08,1,1.46,1.46,0,0,0,.26.68h-3.76a2.4,2.4,0,0,1-.23-.69,5.06,5.06,0,0,1-.09-1v-2.33a2,2,0,0,0-.42-1.37,1.72,1.72,0,0,0-1.4-.49h-3l1-1.17v7Zm3.67-7.38-1-1.33h3.06a2,2,0,0,0,1-.26,1.7,1.7,0,0,0,.71-.72,2.22,2.22,0,0,0,.26-1.09,1.83,1.83,0,0,0-.54-1.37,2.06,2.06,0,0,0-1.5-.53h-3.11l1.08-1.16Z" transform="translate(-79.92 -190.56)"/><path class="cls-24" d="M309.24,318.76a7.39,7.39,0,0,1-2.78-.52,6.6,6.6,0,0,1-2.31-1.54,7.25,7.25,0,0,1-1.57-2.51,9.69,9.69,0,0,1-.57-3.46,9.58,9.58,0,0,1,.57-3.44,7.23,7.23,0,0,1,1.56-2.51,6.55,6.55,0,0,1,2.3-1.52,7.8,7.8,0,0,1,5.6,0,6.5,6.5,0,0,1,2.31,1.52,6.94,6.94,0,0,1,1.56,2.51,9.58,9.58,0,0,1,.57,3.44,9.68,9.68,0,0,1-.58,3.46,7.1,7.1,0,0,1-1.57,2.51,6.55,6.55,0,0,1-2.32,1.54A7.34,7.34,0,0,1,309.24,318.76Zm0-2.95a3.11,3.11,0,0,0,1.66-.48,3.42,3.42,0,0,0,1.27-1.59,7.56,7.56,0,0,0,.49-3,7.44,7.44,0,0,0-.49-3,3.34,3.34,0,0,0-1.28-1.56,3.13,3.13,0,0,0-3.3,0,3.29,3.29,0,0,0-1.28,1.56,7.64,7.64,0,0,0-.48,3,7.78,7.78,0,0,0,.48,3,3.39,3.39,0,0,0,1.28,1.58A3.1,3.1,0,0,0,309.24,315.81Z" transform="translate(-79.92 -190.56)"/><path class="cls-24" d="M365.14,312.94a5.61,5.61,0,0,1-1.6,4.37,7.34,7.34,0,0,1-8.76,0,5.61,5.61,0,0,1-1.59-4.37V303H357v10a3.65,3.65,0,0,0,.5,2.11,2,2,0,0,0,1.71.69,2,2,0,0,0,1.72-.69,3.57,3.57,0,0,0,.51-2.11V303h3.75Z" transform="translate(-79.92 -190.56)"/><path class="cls-24" d="M406,318.5h-3.77V303h5.63a6.4,6.4,0,0,1,3.06.69,5,5,0,0,1,2,1.89,5.25,5.25,0,0,1,.7,2.68,5.4,5.4,0,0,1-.71,2.73,5.21,5.21,0,0,1-2,2,6.07,6.07,0,0,1-3.05.74H406Zm0-5.93-1.7-1.71h3.17a2.38,2.38,0,0,0,1.2-.3,2.16,2.16,0,0,0,.84-.88,2.92,2.92,0,0,0,.31-1.42,2.77,2.77,0,0,0-.3-1.38,1.88,1.88,0,0,0-.84-.79,2.76,2.76,0,0,0-1.21-.26h-3.17l1.7-1.73Z" transform="translate(-79.92 -190.56)"/></svg>